<svg id="svg" xmlns="http://www.w3.org/2000/svg" xmlns:xlink="http://www.w3.org/1999/xlink" width="400" height="349.46466809421844" viewBox="0, 0, 400,349.46466809421844" version="1.1"><g id="svgg"><path id="path0" d="M181.993 10.839 C 175.645 11.416,173.870 11.651,167.133 12.811 C 163.875 13.371,163.690 13.412,156.167 15.210 C 136.453 19.922,112.509 31.393,96.727 43.684 C 42.799 85.688,19.966 150.310,35.689 216.434 C 36.261 218.837,36.956 221.512,37.235 222.378 C 37.514 223.243,38.081 225.052,38.497 226.399 C 54.659 278.755,99.571 321.832,152.972 336.198 C 251.339 362.660,349.024 296.377,361.423 194.755 C 362.916 182.521,362.202 160.741,359.895 148.077 C 359.404 145.385,358.879 142.474,358.728 141.608 C 358.345 139.404,357.079 134.288,356.047 130.769 C 355.567 129.135,355.093 127.483,354.993 127.098 C 351.776 114.717,341.306 93.494,332.161 80.815 C 330.722 78.821,329.313 76.854,329.030 76.444 C 311.670 51.373,275.052 25.620,244.930 17.299 C 234.168 14.326,228.572 13.107,220.280 11.930 C 207.289 10.086,194.337 9.717,181.993 10.839 M206.661 43.707 C 213.748 44.234,225.897 46.248,230.680 47.688 C 238.202 49.953,240.302 50.647,244.755 52.344 C 281.940 66.509,312.420 99.351,323.544 137.238 C 325.655 144.429,326.719 149.256,327.821 156.643 C 329.430 167.436,329.757 180.550,328.639 189.510 C 328.057 194.175,326.954 201.418,326.564 203.147 C 319.313 235.239,303.850 260.410,279.219 280.216 C 271.869 286.127,262.099 292.225,253.671 296.164 C 248.585 298.541,247.909 298.831,244.056 300.286 C 213.343 311.890,180.122 311.793,148.970 300.007 C 111.751 285.926,82.773 255.515,70.502 217.657 C 67.618 208.759,66.167 201.883,64.673 190.035 C 63.746 182.677,63.959 163.963,65.035 158.217 C 65.215 157.255,65.615 154.895,65.923 152.972 C 72.879 109.560,106.226 68.268,146.678 52.977 C 148.024 52.468,149.677 51.836,150.350 51.573 C 166.450 45.283,187.786 42.302,206.661 43.707 M186.014 60.354 C 185.533 60.428,183.724 60.658,181.993 60.867 C 135.727 66.448,96.405 100.950,84.620 146.304 C 82.703 153.681,82.209 156.560,81.103 166.783 C 80.926 168.418,80.779 173.314,80.775 177.663 C 80.768 187.544,81.475 193.582,83.794 203.422 C 86.366 214.338,90.751 225.136,96.655 235.090 C 110.465 258.376,132.835 276.772,158.069 285.596 C 233.987 312.141,312.587 256.150,312.587 175.525 C 312.587 169.614,312.371 166.865,311.323 159.441 C 310.830 155.942,310.510 154.277,309.225 148.514 C 308.144 143.665,305.750 136.481,303.253 130.594 C 291.601 103.126,268.530 80.137,241.434 68.996 C 231.596 64.951,223.959 62.852,212.238 60.972 C 208.803 60.421,188.678 59.947,186.014 60.354 M224.866 162.546 C 227.105 164.785,226.184 166.481,219.143 173.077 C 216.958 175.125,217.000 175.716,219.493 177.979 C 226.124 183.997,227.206 186.094,224.802 188.266 C 222.245 190.576,221.931 190.374,214.081 181.341 C 211.884 178.812,211.538 179.160,211.538 183.905 C 211.538 188.653,211.220 189.161,208.242 189.161 C 204.756 189.161,204.840 189.531,204.968 174.707 L 205.070 162.875 205.895 162.207 C 207.119 161.216,209.785 161.290,210.773 162.342 C 211.447 163.060,211.531 163.559,211.564 167.061 C 211.616 172.562,211.259 172.664,217.758 165.278 C 221.996 160.462,222.564 160.243,224.866 162.546 M104.810 162.394 C 105.369 162.865,107.444 165.394,109.421 168.015 C 114.251 174.418,113.468 174.454,118.589 167.595 C 122.749 162.022,123.307 161.538,125.572 161.538 C 129.034 161.538,129.095 161.808,128.954 176.517 L 128.846 187.825 128.021 188.493 C 126.934 189.372,124.143 189.404,123.127 188.549 C 122.443 187.974,122.394 187.530,122.301 181.119 C 122.183 172.955,122.233 173.002,118.767 177.797 C 114.633 183.517,113.211 183.516,108.949 177.786 C 107.452 175.773,106.094 174.126,105.931 174.126 C 105.769 174.126,105.587 177.178,105.528 180.908 C 105.431 186.998,105.352 187.766,104.754 188.426 C 103.800 189.478,100.891 189.463,99.760 188.401 L 98.951 187.640 98.951 175.314 L 98.951 162.988 99.872 162.263 C 101.196 161.222,103.489 161.283,104.810 162.394 M188.576 169.779 C 190.807 170.552,191.330 171.591,190.369 173.344 C 189.349 175.206,188.830 175.400,186.707 174.714 C 184.377 173.962,182.564 173.947,182.284 174.677 C 181.960 175.521,182.865 176.175,184.887 176.559 C 191.340 177.782,194.006 182.777,190.550 187.170 C 187.359 191.227,173.771 189.548,175.525 185.314 C 176.746 182.366,177.571 182.110,180.990 183.623 C 182.848 184.445,185.079 184.380,185.246 183.500 C 185.333 183.040,184.792 182.741,182.801 182.150 C 177.938 180.704,176.389 179.299,175.995 175.973 C 175.324 170.302,181.424 167.299,188.576 169.779 M251.420 169.444 C 259.049 171.710,261.113 181.670,255.059 187.000 C 248.363 192.893,238.021 188.144,237.970 179.152 C 237.931 172.174,244.543 167.402,251.420 169.444 M160.217 169.596 C 162.125 170.126,162.308 171.110,162.175 180.121 C 162.073 186.982,162.001 187.759,161.397 188.426 C 160.501 189.414,157.444 189.464,156.265 188.509 C 155.482 187.874,155.422 187.874,154.041 188.501 C 145.310 192.467,137.934 179.116,145.040 172.210 C 147.577 169.744,152.709 168.653,154.298 170.242 C 154.837 170.781,155.779 170.726,156.276 170.126 C 156.506 169.849,157.116 169.557,157.630 169.479 C 158.145 169.400,158.645 169.313,158.741 169.285 C 158.837 169.257,159.502 169.397,160.217 169.596 M277.678 170.288 C 278.363 171.103,279.123 171.175,279.700 170.479 C 280.727 169.242,284.294 169.093,286.538 170.192 C 290.450 172.109,291.608 174.924,291.608 182.511 C 291.608 188.913,291.490 189.161,288.422 189.161 C 285.428 189.161,285.169 188.680,284.965 182.732 C 284.761 176.802,284.414 176.065,281.816 176.065 C 279.044 176.065,278.527 177.102,278.322 183.078 C 278.119 188.977,278.018 189.161,274.959 189.161 C 271.780 189.161,271.678 188.862,271.678 179.515 C 271.678 171.127,271.838 170.201,273.390 169.605 C 274.693 169.104,276.992 169.470,277.678 170.288 M246.425 176.070 C 245.186 176.742,244.755 177.594,244.755 179.375 C 244.755 182.361,248.122 183.962,250.442 182.079 C 253.923 179.252,250.366 173.931,246.425 176.070 M150.874 176.205 C 148.318 177.251,148.018 180.787,150.382 182.009 C 151.734 182.709,152.890 182.646,153.947 181.814 C 156.705 179.644,154.098 174.885,150.874 176.205 " stroke="none" fill="#7b93cb" fill-rule="evenodd"></path></g></svg>