<svg id="svg" version="1.1" xmlns="http://www.w3.org/2000/svg" xmlns:xlink="http://www.w3.org/1999/xlink" width="400" height="347.82608695652175" viewBox="0, 0, 400,347.82608695652175"><g id="svgg"><path id="path0" d="M0.000 173.913 L 0.000 347.826 200.000 347.826 L 400.000 347.826 400.000 173.913 L 400.000 0.000 200.000 0.000 L 0.000 0.000 0.000 173.913 M211.205 5.919 C 219.488 6.737,225.040 7.403,227.652 7.892 C 229.183 8.178,231.374 8.543,232.522 8.703 C 233.670 8.864,235.313 9.170,236.174 9.383 C 237.035 9.596,238.287 9.899,238.957 10.055 C 241.787 10.715,246.486 11.936,247.130 12.178 C 247.513 12.321,249.000 12.788,250.435 13.214 C 251.870 13.640,253.983 14.363,255.130 14.821 C 256.278 15.279,257.409 15.654,257.643 15.653 C 257.877 15.653,258.738 15.953,259.556 16.321 C 262.279 17.544,263.581 18.087,263.795 18.087 C 263.912 18.087,264.749 18.421,265.656 18.830 C 266.563 19.239,268.165 19.961,269.217 20.435 C 276.356 23.650,287.790 29.914,291.368 32.570 C 291.977 33.022,292.647 33.391,292.857 33.391 C 293.067 33.391,293.329 33.626,293.439 33.913 C 293.550 34.200,293.804 34.435,294.004 34.435 C 294.205 34.435,294.882 34.826,295.509 35.304 C 296.136 35.783,296.738 36.174,296.846 36.174 C 296.955 36.174,297.317 36.414,297.652 36.707 C 298.536 37.481,303.578 41.390,305.264 42.609 C 309.287 45.518,319.653 55.348,325.043 61.367 C 326.383 62.862,327.640 64.262,327.839 64.477 C 328.037 64.693,329.024 65.887,330.032 67.130 C 331.041 68.374,332.360 69.991,332.963 70.724 C 333.566 71.457,334.336 72.474,334.673 72.985 C 335.011 73.495,336.151 75.087,337.208 76.522 C 338.264 77.957,339.385 79.600,339.700 80.174 C 340.014 80.748,340.374 81.296,340.499 81.391 C 340.624 81.487,341.642 83.052,342.761 84.870 C 343.879 86.687,345.179 88.782,345.650 89.524 C 346.120 90.267,347.348 92.495,348.377 94.476 C 349.407 96.457,350.400 98.353,350.586 98.691 C 350.936 99.329,353.141 104.049,354.380 106.811 C 354.773 107.687,355.422 109.252,355.824 110.289 C 356.225 111.326,356.769 112.643,357.032 113.217 C 357.296 113.791,357.623 114.730,357.760 115.304 C 357.897 115.878,358.120 116.504,358.257 116.696 C 358.464 116.986,361.040 124.930,362.092 128.522 C 362.795 130.918,364.613 138.389,364.886 140.000 C 365.048 140.957,365.566 143.930,366.036 146.609 C 369.101 164.057,368.668 194.979,365.202 206.112 C 365.019 206.699,364.870 207.627,364.870 208.174 C 364.870 208.721,364.713 209.649,364.522 210.236 C 364.148 211.387,362.157 219.091,361.865 220.522 C 361.767 221.000,361.554 221.704,361.391 222.087 C 361.228 222.470,360.540 224.504,359.861 226.609 C 354.774 242.381,347.113 257.534,337.176 271.478 C 334.804 274.807,333.185 276.998,332.346 278.012 C 332.154 278.245,331.300 279.296,330.448 280.348 C 325.335 286.665,314.381 297.862,309.192 302.077 C 305.857 304.787,299.824 309.529,298.992 310.096 C 298.437 310.474,297.637 311.017,297.213 311.304 C 296.789 311.591,295.443 312.530,294.221 313.390 C 292.999 314.251,291.737 315.112,291.417 315.304 C 291.096 315.495,288.983 316.774,286.721 318.145 C 284.459 319.516,281.833 321.046,280.886 321.546 C 279.938 322.046,278.909 322.685,278.598 322.967 C 278.287 323.248,277.852 323.478,277.632 323.478 C 277.094 323.478,273.247 325.324,273.101 325.652 C 273.038 325.796,272.839 325.913,272.659 325.913 C 272.480 325.913,270.990 326.539,269.349 327.304 C 267.708 328.070,266.289 328.696,266.196 328.696 C 266.102 328.696,264.766 329.249,263.227 329.926 C 256.781 332.760,240.686 337.584,233.565 338.816 C 207.300 343.359,190.515 343.355,165.739 338.799 C 164.783 338.623,161.809 337.905,159.130 337.203 C 156.452 336.501,153.870 335.853,153.391 335.763 C 152.913 335.673,152.209 335.465,151.826 335.301 C 151.443 335.137,148.704 334.197,145.739 333.212 C 142.774 332.228,139.878 331.218,139.304 330.970 C 138.730 330.721,137.400 330.169,136.348 329.742 C 124.640 324.991,112.116 318.029,101.913 310.602 C 100.861 309.836,99.609 308.942,99.130 308.615 C 97.929 307.793,92.200 303.238,91.092 302.223 C 90.593 301.766,88.957 300.296,87.457 298.957 C 79.388 291.755,68.606 279.794,63.862 272.783 C 63.312 271.970,62.727 271.304,62.561 271.304 C 62.396 271.304,62.261 271.123,62.261 270.902 C 62.261 270.681,61.870 269.987,61.391 269.360 C 60.913 268.733,60.522 268.066,60.522 267.878 C 60.522 267.690,60.404 267.484,60.261 267.420 C 60.026 267.316,58.475 265.102,57.571 263.580 C 57.376 263.253,56.099 261.140,54.731 258.884 C 51.489 253.536,47.091 244.786,44.716 238.957 C 44.209 237.713,43.659 236.383,43.493 236.000 C 43.327 235.617,42.841 234.365,42.413 233.217 C 41.985 232.070,41.439 230.661,41.198 230.087 C 40.958 229.513,40.576 228.339,40.348 227.478 C 40.121 226.617,39.817 225.678,39.673 225.391 C 39.529 225.104,39.201 224.009,38.944 222.957 C 38.688 221.904,38.368 220.887,38.234 220.696 C 38.100 220.504,37.723 219.174,37.397 217.739 C 37.071 216.304,36.679 214.739,36.526 214.261 C 36.373 213.783,36.060 212.452,35.830 211.304 C 35.600 210.157,35.270 208.858,35.097 208.418 C 34.924 207.979,34.783 207.162,34.783 206.602 C 34.783 206.043,34.484 204.133,34.120 202.358 C 32.049 192.272,31.014 172.339,32.020 161.913 C 32.654 155.341,33.734 146.727,34.288 143.826 C 35.477 137.595,37.558 129.080,38.835 125.217 C 39.310 123.783,39.906 121.904,40.159 121.043 C 40.692 119.233,42.974 112.852,43.455 111.826 C 43.635 111.443,44.594 109.252,45.587 106.957 C 46.579 104.661,47.598 102.391,47.849 101.913 C 48.101 101.435,49.113 99.400,50.099 97.391 C 51.682 94.166,52.664 92.368,54.183 89.913 C 54.420 89.530,54.805 88.826,55.040 88.348 C 55.274 87.870,56.290 86.249,57.298 84.746 C 58.306 83.243,59.130 81.927,59.130 81.822 C 59.130 81.717,59.522 81.118,60.000 80.491 C 60.478 79.864,60.870 79.197,60.870 79.009 C 60.870 78.821,60.995 78.614,61.148 78.551 C 61.301 78.487,62.195 77.339,63.134 76.000 C 64.074 74.661,65.474 72.762,66.247 71.781 C 67.020 70.800,67.965 69.561,68.348 69.028 C 68.730 68.495,69.202 67.889,69.395 67.682 C 69.589 67.474,70.528 66.368,71.482 65.223 C 75.830 60.009,86.790 49.058,91.155 45.565 C 91.992 44.896,92.955 44.074,93.295 43.739 C 93.635 43.404,94.062 43.130,94.244 43.130 C 94.425 43.130,94.699 42.918,94.852 42.658 C 95.209 42.052,101.663 37.150,105.219 34.783 C 115.987 27.617,126.152 22.217,137.913 17.414 C 138.296 17.258,139.078 16.938,139.652 16.702 C 159.282 8.658,190.825 3.905,211.205 5.919 M191.130 39.498 C 190.939 39.575,188.748 39.796,186.261 39.989 C 182.209 40.305,180.374 40.555,173.565 41.720 C 171.105 42.141,166.982 43.101,166.087 43.461 C 165.704 43.615,164.530 43.936,163.478 44.175 C 156.331 45.795,141.841 51.824,133.391 56.691 C 132.435 57.242,131.417 57.811,131.130 57.955 C 130.843 58.100,129.867 58.736,128.960 59.370 C 128.053 60.003,127.229 60.522,127.129 60.522 C 126.960 60.522,125.900 61.254,120.747 64.932 C 118.386 66.618,113.392 70.529,112.660 71.265 C 112.354 71.574,111.190 72.609,110.075 73.565 C 105.499 77.489,95.725 87.874,94.816 89.777 C 94.644 90.139,94.391 90.435,94.255 90.435 C 94.119 90.435,93.556 91.100,93.005 91.913 C 92.453 92.726,91.918 93.470,91.816 93.565 C 91.713 93.661,91.011 94.600,90.255 95.652 C 89.500 96.704,88.761 97.617,88.615 97.681 C 88.468 97.745,88.348 97.965,88.348 98.170 C 88.348 98.375,87.957 99.056,87.478 99.683 C 87.000 100.310,86.609 100.918,86.609 101.034 C 86.609 101.151,86.320 101.670,85.967 102.188 C 83.641 105.607,82.550 107.553,79.391 113.913 C 76.789 119.152,75.826 121.207,75.826 121.521 C 75.826 121.629,75.462 122.545,75.017 123.555 C 74.573 124.565,73.960 126.017,73.655 126.783 C 72.730 129.107,69.908 138.220,69.911 138.874 C 69.912 139.212,69.773 139.759,69.602 140.092 C 69.158 140.955,68.217 145.046,67.623 148.696 C 67.343 150.417,66.960 152.687,66.773 153.739 C 65.076 163.265,65.172 183.283,66.966 194.435 C 67.976 200.708,68.137 201.577,68.875 204.696 C 69.283 206.417,69.736 208.374,69.883 209.043 C 70.307 210.973,73.057 219.503,73.779 221.127 C 74.140 221.938,74.435 222.726,74.435 222.879 C 74.435 223.477,79.189 234.201,80.388 236.309 C 80.593 236.670,81.032 237.452,81.364 238.048 C 83.960 242.712,84.763 244.050,87.304 247.943 C 88.357 249.555,89.374 251.119,89.565 251.418 C 89.757 251.717,90.038 252.127,90.190 252.329 C 90.343 252.531,91.102 253.557,91.877 254.609 C 93.846 257.281,94.723 258.429,95.153 258.900 C 95.356 259.122,96.522 260.478,97.743 261.913 C 101.886 266.780,109.097 273.858,113.512 277.391 C 114.229 277.965,115.359 278.883,116.022 279.432 C 116.685 279.980,118.830 281.570,120.788 282.965 C 122.746 284.360,124.622 285.750,124.957 286.055 C 125.291 286.359,125.728 286.609,125.928 286.609 C 126.127 286.609,126.479 286.767,126.710 286.961 C 127.579 287.691,129.783 289.043,130.102 289.043 C 130.285 289.043,130.435 289.182,130.435 289.351 C 130.435 289.520,130.709 289.751,131.043 289.864 C 131.378 289.977,132.904 290.775,134.435 291.637 C 137.480 293.352,144.901 297.043,145.309 297.045 C 145.450 297.046,146.312 297.425,147.225 297.889 C 148.138 298.352,149.344 298.832,149.906 298.955 C 150.467 299.078,151.552 299.481,152.316 299.850 C 153.080 300.220,153.917 300.522,154.175 300.522 C 154.432 300.522,154.792 300.655,154.974 300.818 C 155.156 300.981,156.087 301.319,157.043 301.568 C 158.000 301.817,158.939 302.127,159.130 302.257 C 159.322 302.387,160.574 302.775,161.913 303.120 C 163.252 303.464,164.497 303.881,164.678 304.047 C 164.860 304.212,165.524 304.348,166.153 304.348 C 166.782 304.348,168.120 304.661,169.127 305.043 C 170.133 305.426,171.394 305.739,171.929 305.739 C 172.463 305.739,173.872 305.962,175.059 306.234 C 176.246 306.507,178.313 306.894,179.652 307.095 C 180.991 307.296,183.417 307.661,185.043 307.904 C 187.019 308.201,192.153 308.348,200.522 308.348 C 213.354 308.348,214.641 308.255,223.130 306.718 C 225.235 306.337,227.661 305.906,228.522 305.761 C 232.899 305.023,247.529 300.565,249.217 299.455 C 249.409 299.329,250.013 299.119,250.560 298.988 C 251.863 298.676,254.490 297.534,256.609 296.358 C 256.943 296.172,258.548 295.385,260.174 294.608 C 261.800 293.832,263.757 292.849,264.522 292.425 C 269.021 289.927,271.070 288.701,273.492 287.057 C 274.982 286.045,276.343 285.217,276.518 285.217 C 276.692 285.217,276.960 284.994,277.113 284.720 C 277.266 284.447,277.785 284.016,278.266 283.764 C 279.565 283.081,286.609 277.512,286.609 277.167 C 286.609 277.003,286.776 276.870,286.981 276.870 C 287.186 276.870,287.560 276.674,287.812 276.435 C 288.064 276.196,289.949 274.442,292.001 272.538 C 296.309 268.543,300.082 264.449,305.766 257.602 C 307.255 255.809,312.582 248.218,312.810 247.565 C 312.926 247.230,313.183 246.957,313.380 246.957 C 313.578 246.957,313.739 246.812,313.739 246.636 C 313.739 246.460,314.525 245.049,315.486 243.500 C 319.433 237.135,322.955 229.953,325.559 222.957 C 326.164 221.330,326.800 219.687,326.971 219.304 C 327.582 217.942,330.435 208.319,330.435 207.621 C 330.435 207.230,330.577 206.645,330.751 206.319 C 331.258 205.372,332.149 200.907,332.879 195.652 C 333.251 192.974,333.725 189.922,333.932 188.870 C 334.475 186.111,334.732 167.549,334.291 162.957 C 333.468 154.388,332.343 147.247,331.113 142.783 C 330.903 142.017,330.610 140.765,330.464 140.000 C 330.077 137.976,327.716 130.313,326.928 128.522 C 326.760 128.139,326.163 126.574,325.602 125.043 C 323.881 120.349,318.994 110.079,316.498 105.913 C 315.925 104.957,315.351 103.939,315.224 103.652 C 315.096 103.365,314.866 102.974,314.712 102.783 C 314.558 102.591,313.860 101.574,313.160 100.522 C 310.692 96.812,308.743 94.065,307.163 92.070 C 306.284 90.961,305.208 89.561,304.772 88.960 C 302.517 85.850,293.144 76.165,289.041 72.705 C 287.799 71.658,286.704 70.710,286.609 70.599 C 286.513 70.488,285.104 69.350,283.478 68.070 C 281.852 66.790,280.274 65.508,279.971 65.219 C 279.668 64.931,279.316 64.696,279.189 64.696 C 279.063 64.696,277.902 63.948,276.610 63.033 C 273.830 61.067,268.593 57.739,268.277 57.739 C 268.155 57.739,267.808 57.524,267.506 57.261 C 266.752 56.604,258.201 52.174,257.687 52.174 C 257.459 52.174,257.025 51.964,256.723 51.707 C 256.183 51.249,249.470 48.346,248.953 48.347 C 248.807 48.348,248.025 48.052,247.214 47.692 C 243.787 46.166,231.639 42.615,227.304 41.871 C 226.730 41.772,225.087 41.476,223.652 41.212 C 221.088 40.740,218.097 40.361,211.412 39.658 C 208.243 39.326,191.886 39.196,191.130 39.498 M207.478 56.350 C 213.511 56.691,217.680 57.236,223.304 58.420 C 224.165 58.601,226.043 58.977,227.478 59.255 C 228.913 59.533,230.478 59.919,230.957 60.113 C 231.435 60.307,233.235 60.877,234.957 61.381 C 243.712 63.939,253.711 68.539,262.870 74.220 C 264.639 75.318,266.087 76.325,266.087 76.458 C 266.087 76.591,266.517 76.895,267.043 77.133 C 267.910 77.526,271.738 80.413,275.826 83.758 C 276.687 84.462,279.003 86.600,280.972 88.508 C 282.942 90.417,284.663 92.061,284.798 92.163 C 285.097 92.388,287.221 94.782,289.565 97.535 C 290.522 98.659,291.813 100.162,292.435 100.875 C 293.057 101.588,293.565 102.335,293.565 102.535 C 293.565 102.735,293.704 102.951,293.873 103.014 C 294.734 103.339,304.139 118.179,304.569 119.891 C 304.681 120.337,304.898 120.780,305.052 120.875 C 305.302 121.030,306.384 123.203,307.126 125.043 C 307.280 125.426,307.805 126.625,308.293 127.708 C 309.319 129.988,311.030 134.506,311.631 136.522 C 311.859 137.287,312.173 138.226,312.327 138.609 C 312.973 140.204,314.558 146.513,315.430 150.957 C 315.636 152.009,315.959 153.652,316.147 154.609 C 318.251 165.298,318.275 184.365,316.197 193.565 C 316.024 194.330,315.700 195.896,315.478 197.043 C 314.479 202.196,313.314 206.698,311.743 211.478 C 310.477 215.334,307.372 223.051,306.426 224.696 C 306.261 224.983,305.572 226.313,304.895 227.652 C 297.735 241.806,286.514 255.538,273.565 265.993 C 270.445 268.512,261.865 274.435,261.335 274.435 C 261.205 274.435,260.851 274.648,260.549 274.908 C 260.072 275.318,258.037 276.482,255.391 277.855 C 254.961 278.078,254.257 278.447,253.826 278.674 C 249.338 281.041,240.637 284.740,238.087 285.364 C 237.513 285.504,236.574 285.826,236.000 286.079 C 233.304 287.270,223.457 289.623,217.913 290.402 C 208.331 291.749,206.250 291.894,198.920 291.729 C 180.481 291.312,165.605 287.849,149.293 280.176 C 147.051 279.122,144.983 278.110,144.696 277.927 C 144.409 277.745,143.078 276.978,141.739 276.223 C 140.400 275.467,138.086 274.052,136.598 273.077 C 135.109 272.102,133.740 271.304,133.554 271.304 C 133.369 271.304,133.217 271.170,133.217 271.006 C 133.217 270.842,132.278 270.128,131.130 269.419 C 129.983 268.711,129.043 267.995,129.043 267.828 C 129.043 267.662,128.770 267.435,128.435 267.324 C 128.100 267.214,127.278 266.650,126.609 266.071 C 125.939 265.492,124.614 264.359,123.664 263.553 C 120.026 260.465,115.763 256.306,112.306 252.473 C 111.851 251.969,110.989 251.016,110.391 250.356 C 107.074 246.698,101.408 238.650,98.087 232.881 C 95.278 228.000,90.783 219.025,90.783 218.296 C 90.783 218.178,90.249 216.714,89.597 215.041 C 88.945 213.369,88.001 210.591,87.499 208.870 C 86.997 207.148,86.372 205.035,86.109 204.174 C 83.096 194.293,81.512 175.218,82.789 164.174 C 83.431 158.617,84.159 153.218,84.476 151.652 C 84.651 150.791,84.968 149.226,85.181 148.174 C 85.394 147.122,85.817 145.400,86.120 144.348 C 86.962 141.432,87.621 139.102,88.040 137.565 C 88.248 136.800,88.736 135.391,89.124 134.435 C 89.512 133.478,89.956 132.383,90.111 132.000 C 90.265 131.617,90.498 130.913,90.628 130.435 C 91.141 128.555,96.923 116.637,98.348 114.522 C 98.778 113.883,99.130 113.275,99.130 113.172 C 99.130 112.622,106.166 102.490,107.914 100.522 C 108.169 100.235,109.067 99.139,109.909 98.087 C 113.997 92.979,123.328 84.348,131.652 77.975 C 132.770 77.119,136.720 74.435,136.861 74.435 C 136.954 74.435,137.867 73.900,138.889 73.246 C 142.231 71.108,151.871 66.087,152.634 66.087 C 152.823 66.087,153.579 65.788,154.315 65.422 C 155.050 65.057,156.748 64.337,158.087 63.822 C 159.426 63.308,160.794 62.746,161.126 62.574 C 161.458 62.402,162.014 62.261,162.360 62.261 C 162.707 62.261,163.140 62.121,163.322 61.950 C 163.503 61.778,164.948 61.315,166.532 60.920 C 168.116 60.525,169.596 60.089,169.820 59.950 C 170.045 59.811,171.253 59.500,172.505 59.258 C 173.758 59.017,175.487 58.652,176.348 58.449 C 184.685 56.477,196.102 55.707,207.478 56.350 M223.190 161.105 C 219.954 164.458,218.454 166.133,217.246 167.739 C 215.581 169.954,215.304 169.575,215.304 165.072 C 215.304 160.495,215.218 160.153,213.888 159.465 C 212.423 158.708,210.627 158.824,209.554 159.747 L 208.635 160.538 208.670 173.225 C 208.709 187.844,208.543 187.140,211.952 187.119 C 214.939 187.101,215.111 186.809,215.245 181.551 C 215.377 176.366,215.346 176.399,217.601 179.033 C 225.019 187.698,225.770 188.330,227.408 187.283 C 231.612 184.596,231.223 183.393,223.880 176.365 C 220.465 173.097,220.466 173.447,223.861 170.065 C 230.408 163.542,231.041 162.265,228.796 160.106 C 226.658 158.048,226.032 158.160,223.190 161.105 M102.646 159.244 C 100.762 159.806,100.628 160.694,100.550 173.188 C 100.478 184.745,100.533 185.353,101.762 186.582 C 102.497 187.317,105.491 187.309,106.621 186.569 L 107.478 186.007 107.478 178.743 C 107.478 170.957,107.562 170.659,109.098 172.962 C 114.363 180.861,116.290 181.613,119.948 177.195 C 120.116 176.992,120.430 176.496,120.646 176.092 C 120.862 175.689,121.236 175.151,121.476 174.897 C 121.717 174.643,122.305 173.849,122.783 173.133 C 124.345 170.793,124.473 171.208,124.589 178.985 C 124.688 185.602,124.747 186.182,125.371 186.637 C 126.382 187.376,129.483 187.276,130.475 186.472 L 131.288 185.814 131.284 173.253 C 131.280 158.542,131.423 159.113,127.755 159.150 C 125.542 159.172,124.582 159.998,121.098 164.879 C 118.534 168.472,116.384 171.130,116.043 171.130 C 115.681 171.130,115.774 171.241,112.351 166.735 C 106.547 159.095,105.599 158.363,102.646 159.244 M251.652 166.520 C 241.980 168.081,238.237 181.135,246.197 185.545 C 252.976 189.300,259.166 187.686,262.131 181.391 C 262.999 179.547,263.354 174.261,262.609 174.261 C 262.417 174.261,262.261 173.893,262.261 173.443 C 262.261 170.331,255.476 165.903,251.652 166.520 M183.356 167.177 C 179.106 168.331,177.687 173.082,180.397 177.085 C 181.326 178.457,182.502 179.068,186.348 180.174 C 187.974 180.641,188.870 181.077,188.870 181.399 C 188.870 182.117,187.208 182.433,185.760 181.992 C 185.079 181.785,183.601 181.337,182.475 180.998 L 180.429 180.381 179.684 181.316 C 177.434 184.137,178.193 185.660,182.550 187.063 C 188.500 188.980,194.414 186.737,194.976 182.352 C 195.592 177.549,193.688 175.331,188.067 174.300 C 185.642 173.855,185.391 173.720,185.391 172.856 C 185.391 171.846,186.873 171.653,189.392 172.335 C 192.158 173.084,192.892 172.852,193.824 170.933 L 194.567 169.403 193.778 168.563 C 192.182 166.864,187.032 166.179,183.356 167.177 M160.348 167.201 C 159.870 167.291,159.135 167.683,158.716 168.072 L 157.954 168.778 157.017 168.041 C 155.695 167.001,151.468 166.976,150.166 168.000 C 149.680 168.383,149.150 168.695,148.989 168.694 C 148.214 168.688,145.789 172.049,145.042 174.164 C 142.480 181.421,150.449 189.710,156.850 186.445 C 158.186 185.763,158.197 185.763,159.064 186.445 C 160.251 187.378,163.467 187.409,164.294 186.494 C 165.045 185.664,165.173 168.869,164.435 167.924 C 163.967 167.325,161.760 166.934,160.348 167.201 M278.495 167.240 C 276.293 167.421,276.096 168.337,276.233 177.759 C 276.369 187.128,276.371 187.134,279.619 187.125 C 282.812 187.116,283.130 186.514,283.130 180.482 C 283.130 174.797,283.626 173.931,286.886 173.918 C 289.275 173.908,289.739 175.015,289.739 180.721 C 289.739 186.620,290.029 187.130,293.372 187.130 C 296.365 187.130,296.503 186.893,296.639 181.507 C 296.859 172.771,294.765 168.461,289.760 167.345 C 287.708 166.888,284.174 167.549,284.174 168.390 C 284.174 168.972,282.806 168.693,282.456 168.039 C 282.079 167.335,280.705 167.058,278.495 167.240 M254.150 173.893 C 257.627 175.471,256.207 180.870,252.316 180.870 C 248.597 180.870,247.470 175.215,250.892 173.726 C 252.322 173.105,252.425 173.110,254.150 173.893 M157.268 175.007 C 159.399 177.779,156.391 181.483,153.229 179.982 C 149.883 178.394,151.325 173.590,155.022 174.006 C 156.170 174.136,156.820 174.426,157.268 175.007 " stroke="none" fill="#d3dce4" fill-rule="evenodd"></path><path id="path1" d="M184.404 6.284 C 168.818 7.819,151.479 11.856,139.652 16.702 C 139.078 16.938,138.296 17.258,137.913 17.414 C 126.152 22.217,115.987 27.617,105.219 34.783 C 101.663 37.150,95.209 42.052,94.852 42.658 C 94.699 42.918,94.425 43.130,94.244 43.130 C 94.062 43.130,93.635 43.404,93.295 43.739 C 92.955 44.074,91.992 44.896,91.155 45.565 C 86.790 49.058,75.830 60.009,71.482 65.223 C 70.528 66.368,69.589 67.474,69.395 67.682 C 69.202 67.889,68.730 68.495,68.348 69.028 C 67.965 69.561,67.020 70.800,66.247 71.781 C 65.474 72.762,64.074 74.661,63.134 76.000 C 62.195 77.339,61.301 78.487,61.148 78.551 C 60.995 78.614,60.870 78.821,60.870 79.009 C 60.870 79.197,60.478 79.864,60.000 80.491 C 59.522 81.118,59.130 81.717,59.130 81.822 C 59.130 81.927,58.306 83.243,57.298 84.746 C 56.290 86.249,55.274 87.870,55.040 88.348 C 54.805 88.826,54.420 89.530,54.183 89.913 C 52.664 92.368,51.682 94.166,50.099 97.391 C 49.113 99.400,48.101 101.435,47.849 101.913 C 47.598 102.391,46.579 104.661,45.587 106.957 C 44.594 109.252,43.635 111.443,43.455 111.826 C 42.974 112.852,40.692 119.233,40.159 121.043 C 39.906 121.904,39.310 123.783,38.835 125.217 C 37.558 129.080,35.477 137.595,34.288 143.826 C 33.734 146.727,32.654 155.341,32.020 161.913 C 31.014 172.339,32.049 192.272,34.120 202.358 C 34.484 204.133,34.783 206.043,34.783 206.602 C 34.783 207.162,34.924 207.979,35.097 208.418 C 35.270 208.858,35.600 210.157,35.830 211.304 C 36.060 212.452,36.373 213.783,36.526 214.261 C 36.679 214.739,37.071 216.304,37.397 217.739 C 37.723 219.174,38.100 220.504,38.234 220.696 C 38.368 220.887,38.688 221.904,38.944 222.957 C 39.201 224.009,39.529 225.104,39.673 225.391 C 39.817 225.678,40.121 226.617,40.348 227.478 C 40.576 228.339,40.958 229.513,41.198 230.087 C 41.439 230.661,41.985 232.070,42.413 233.217 C 42.841 234.365,43.327 235.617,43.493 236.000 C 43.659 236.383,44.209 237.713,44.716 238.957 C 47.091 244.786,51.489 253.536,54.731 258.884 C 56.099 261.140,57.376 263.253,57.571 263.580 C 58.475 265.102,60.026 267.316,60.261 267.420 C 60.404 267.484,60.522 267.690,60.522 267.878 C 60.522 268.066,60.913 268.733,61.391 269.360 C 61.870 269.987,62.261 270.681,62.261 270.902 C 62.261 271.123,62.396 271.304,62.561 271.304 C 62.727 271.304,63.312 271.970,63.862 272.783 C 68.606 279.794,79.388 291.755,87.457 298.957 C 88.957 300.296,90.593 301.766,91.092 302.223 C 92.200 303.238,97.929 307.793,99.130 308.615 C 99.609 308.942,100.861 309.836,101.913 310.602 C 112.116 318.029,124.640 324.991,136.348 329.742 C 137.400 330.169,138.730 330.721,139.304 330.970 C 139.878 331.218,142.774 332.228,145.739 333.212 C 148.704 334.197,151.443 335.137,151.826 335.301 C 152.209 335.465,152.913 335.673,153.391 335.763 C 153.870 335.853,156.452 336.501,159.130 337.203 C 163.966 338.470,164.751 338.639,170.435 339.638 C 182.459 341.752,195.312 342.551,207.478 341.941 C 217.572 341.435,220.334 341.104,233.565 338.816 C 240.686 337.584,256.781 332.760,263.227 329.926 C 264.766 329.249,266.102 328.696,266.196 328.696 C 266.289 328.696,267.708 328.070,269.349 327.304 C 270.990 326.539,272.480 325.913,272.659 325.913 C 272.839 325.913,273.038 325.796,273.101 325.652 C 273.247 325.324,277.094 323.478,277.632 323.478 C 277.852 323.478,278.287 323.248,278.598 322.967 C 278.909 322.685,279.938 322.046,280.886 321.546 C 281.833 321.046,284.459 319.516,286.721 318.145 C 288.983 316.774,291.096 315.495,291.417 315.304 C 291.737 315.112,292.999 314.251,294.221 313.390 C 295.443 312.530,296.789 311.591,297.213 311.304 C 297.637 311.017,298.437 310.474,298.992 310.096 C 299.824 309.529,305.857 304.787,309.192 302.077 C 314.381 297.862,325.335 286.665,330.448 280.348 C 331.300 279.296,332.154 278.245,332.346 278.012 C 333.185 276.998,334.804 274.807,337.176 271.478 C 344.777 260.812,351.121 249.258,356.178 236.870 C 357.745 233.031,358.187 231.798,359.861 226.609 C 360.540 224.504,361.228 222.470,361.391 222.087 C 361.554 221.704,361.767 221.000,361.865 220.522 C 362.157 219.091,364.148 211.387,364.522 210.236 C 364.713 209.649,364.870 208.721,364.870 208.174 C 364.870 207.627,365.019 206.699,365.202 206.112 C 368.668 194.979,369.101 164.057,366.036 146.609 C 365.566 143.930,365.048 140.957,364.886 140.000 C 364.613 138.389,362.795 130.918,362.092 128.522 C 361.040 124.930,358.464 116.986,358.257 116.696 C 358.120 116.504,357.897 115.878,357.760 115.304 C 357.623 114.730,357.296 113.791,357.032 113.217 C 356.769 112.643,356.225 111.326,355.824 110.289 C 355.422 109.252,354.773 107.687,354.380 106.811 C 353.141 104.049,350.936 99.329,350.586 98.691 C 350.400 98.353,349.407 96.457,348.377 94.476 C 347.348 92.495,346.120 90.267,345.650 89.524 C 345.179 88.782,343.879 86.687,342.761 84.870 C 341.642 83.052,340.624 81.487,340.499 81.391 C 340.374 81.296,340.014 80.748,339.700 80.174 C 339.385 79.600,338.264 77.957,337.208 76.522 C 336.151 75.087,335.011 73.495,334.673 72.985 C 334.336 72.474,333.566 71.457,332.963 70.724 C 332.360 69.991,331.041 68.374,330.032 67.130 C 329.024 65.887,328.037 64.693,327.839 64.477 C 327.640 64.262,326.383 62.862,325.043 61.367 C 319.653 55.348,309.287 45.518,305.264 42.609 C 303.578 41.390,298.536 37.481,297.652 36.707 C 297.317 36.414,296.955 36.174,296.846 36.174 C 296.738 36.174,296.136 35.783,295.509 35.304 C 294.882 34.826,294.205 34.435,294.004 34.435 C 293.804 34.435,293.550 34.200,293.439 33.913 C 293.329 33.626,293.067 33.391,292.857 33.391 C 292.647 33.391,291.977 33.022,291.368 32.570 C 287.790 29.914,276.356 23.650,269.217 20.435 C 268.165 19.961,266.563 19.239,265.656 18.830 C 264.749 18.421,263.912 18.087,263.795 18.087 C 263.581 18.087,262.279 17.544,259.556 16.321 C 258.738 15.953,257.877 15.653,257.643 15.653 C 257.409 15.654,256.278 15.279,255.130 14.821 C 253.983 14.363,251.870 13.640,250.435 13.214 C 249.000 12.788,247.513 12.321,247.130 12.178 C 246.486 11.936,241.787 10.715,238.957 10.055 C 238.287 9.899,237.035 9.596,236.174 9.383 C 235.313 9.170,233.670 8.864,232.522 8.703 C 231.374 8.543,229.183 8.178,227.652 7.892 C 225.040 7.403,219.488 6.737,211.205 5.919 C 205.690 5.374,191.713 5.564,184.404 6.284 M211.412 39.658 C 218.097 40.361,221.088 40.740,223.652 41.212 C 225.087 41.476,226.730 41.772,227.304 41.871 C 231.639 42.615,243.787 46.166,247.214 47.692 C 248.025 48.052,248.807 48.348,248.953 48.347 C 249.470 48.346,256.183 51.249,256.723 51.707 C 257.025 51.964,257.459 52.174,257.687 52.174 C 258.201 52.174,266.752 56.604,267.506 57.261 C 267.808 57.524,268.155 57.739,268.277 57.739 C 268.593 57.739,273.830 61.067,276.610 63.033 C 277.902 63.948,279.063 64.696,279.189 64.696 C 279.316 64.696,279.668 64.931,279.971 65.219 C 280.274 65.508,281.852 66.790,283.478 68.070 C 285.104 69.350,286.513 70.488,286.609 70.599 C 286.704 70.710,287.799 71.658,289.041 72.705 C 293.144 76.165,302.517 85.850,304.772 88.960 C 305.208 89.561,306.284 90.961,307.163 92.070 C 308.743 94.065,310.692 96.812,313.160 100.522 C 313.860 101.574,314.558 102.591,314.712 102.783 C 314.866 102.974,315.096 103.365,315.224 103.652 C 315.351 103.939,315.925 104.957,316.498 105.913 C 318.994 110.079,323.881 120.349,325.602 125.043 C 326.163 126.574,326.760 128.139,326.928 128.522 C 327.716 130.313,330.077 137.976,330.464 140.000 C 330.610 140.765,330.903 142.017,331.113 142.783 C 332.343 147.247,333.468 154.388,334.291 162.957 C 334.732 167.549,334.475 186.111,333.932 188.870 C 333.725 189.922,333.251 192.974,332.879 195.652 C 332.149 200.907,331.258 205.372,330.751 206.319 C 330.577 206.645,330.435 207.230,330.435 207.621 C 330.435 208.319,327.582 217.942,326.971 219.304 C 326.800 219.687,326.164 221.330,325.559 222.957 C 322.955 229.953,319.433 237.135,315.486 243.500 C 314.525 245.049,313.739 246.460,313.739 246.636 C 313.739 246.812,313.578 246.957,313.380 246.957 C 313.183 246.957,312.926 247.230,312.810 247.565 C 312.582 248.218,307.255 255.809,305.766 257.602 C 300.082 264.449,296.309 268.543,292.001 272.538 C 289.949 274.442,288.064 276.196,287.812 276.435 C 287.560 276.674,287.186 276.870,286.981 276.870 C 286.776 276.870,286.609 277.003,286.609 277.167 C 286.609 277.512,279.565 283.081,278.266 283.764 C 277.785 284.016,277.266 284.447,277.113 284.720 C 276.960 284.994,276.692 285.217,276.518 285.217 C 276.343 285.217,274.982 286.045,273.492 287.057 C 271.070 288.701,269.021 289.927,264.522 292.425 C 263.757 292.849,261.800 293.832,260.174 294.608 C 258.548 295.385,256.943 296.172,256.609 296.358 C 254.490 297.534,251.863 298.676,250.560 298.988 C 250.013 299.119,249.409 299.329,249.217 299.455 C 247.529 300.565,232.899 305.023,228.522 305.761 C 227.661 305.906,225.235 306.337,223.130 306.718 C 214.641 308.255,213.354 308.348,200.522 308.348 C 192.153 308.348,187.019 308.201,185.043 307.904 C 183.417 307.661,180.991 307.296,179.652 307.095 C 178.313 306.894,176.246 306.507,175.059 306.234 C 173.872 305.962,172.463 305.739,171.929 305.739 C 171.394 305.739,170.133 305.426,169.127 305.043 C 168.120 304.661,166.782 304.348,166.153 304.348 C 165.524 304.348,164.860 304.212,164.678 304.047 C 164.497 303.881,163.252 303.464,161.913 303.120 C 160.574 302.775,159.322 302.387,159.130 302.257 C 158.939 302.127,158.000 301.817,157.043 301.568 C 156.087 301.319,155.156 300.981,154.974 300.818 C 154.792 300.655,154.432 300.522,154.175 300.522 C 153.917 300.522,153.080 300.220,152.316 299.850 C 151.552 299.481,150.467 299.078,149.906 298.955 C 149.344 298.832,148.138 298.352,147.225 297.889 C 146.312 297.425,145.450 297.046,145.309 297.045 C 144.901 297.043,137.480 293.352,134.435 291.637 C 132.904 290.775,131.378 289.977,131.043 289.864 C 130.709 289.751,130.435 289.520,130.435 289.351 C 130.435 289.182,130.285 289.043,130.102 289.043 C 129.783 289.043,127.579 287.691,126.710 286.961 C 126.479 286.767,126.127 286.609,125.928 286.609 C 125.728 286.609,125.291 286.359,124.957 286.055 C 124.622 285.750,122.746 284.360,120.788 282.965 C 118.830 281.570,116.685 279.980,116.022 279.432 C 115.359 278.883,114.229 277.965,113.512 277.391 C 109.097 273.858,101.886 266.780,97.743 261.913 C 96.522 260.478,95.356 259.122,95.153 258.900 C 94.723 258.429,93.846 257.281,91.877 254.609 C 91.102 253.557,90.343 252.531,90.190 252.329 C 90.038 252.127,89.757 251.717,89.565 251.418 C 89.374 251.119,88.357 249.555,87.304 247.943 C 84.763 244.050,83.960 242.712,81.364 238.048 C 81.032 237.452,80.593 236.670,80.388 236.309 C 79.189 234.201,74.435 223.477,74.435 222.879 C 74.435 222.726,74.140 221.938,73.779 221.127 C 73.057 219.503,70.307 210.973,69.883 209.043 C 69.736 208.374,69.283 206.417,68.875 204.696 C 68.137 201.577,67.976 200.708,66.966 194.435 C 65.172 183.283,65.076 163.265,66.773 153.739 C 66.960 152.687,67.343 150.417,67.623 148.696 C 68.217 145.046,69.158 140.955,69.602 140.092 C 69.773 139.759,69.912 139.212,69.911 138.874 C 69.908 138.220,72.730 129.107,73.655 126.783 C 73.960 126.017,74.573 124.565,75.017 123.555 C 75.462 122.545,75.826 121.629,75.826 121.521 C 75.826 121.207,76.789 119.152,79.391 113.913 C 82.550 107.553,83.641 105.607,85.967 102.188 C 86.320 101.670,86.609 101.151,86.609 101.034 C 86.609 100.918,87.000 100.310,87.478 99.683 C 87.957 99.056,88.348 98.375,88.348 98.170 C 88.348 97.965,88.468 97.745,88.615 97.681 C 88.761 97.617,89.500 96.704,90.255 95.652 C 91.011 94.600,91.713 93.661,91.816 93.565 C 91.918 93.470,92.453 92.726,93.005 91.913 C 93.556 91.100,94.119 90.435,94.255 90.435 C 94.391 90.435,94.644 90.139,94.816 89.777 C 95.725 87.874,105.499 77.489,110.075 73.565 C 111.190 72.609,112.354 71.574,112.660 71.265 C 113.392 70.529,118.386 66.618,120.747 64.932 C 125.900 61.254,126.960 60.522,127.129 60.522 C 127.229 60.522,128.053 60.003,128.960 59.370 C 129.867 58.736,130.843 58.100,131.130 57.955 C 131.417 57.811,132.435 57.242,133.391 56.691 C 141.841 51.824,156.331 45.795,163.478 44.175 C 164.530 43.936,165.704 43.615,166.087 43.461 C 166.982 43.101,171.105 42.141,173.565 41.720 C 180.374 40.555,182.209 40.305,186.261 39.989 C 188.748 39.796,190.939 39.575,191.130 39.498 C 191.886 39.196,208.243 39.326,211.412 39.658 M191.826 56.362 C 186.697 56.638,180.439 57.481,176.348 58.449 C 175.487 58.652,173.758 59.017,172.505 59.258 C 171.253 59.500,170.045 59.811,169.820 59.950 C 169.596 60.089,168.116 60.525,166.532 60.920 C 164.948 61.315,163.503 61.778,163.322 61.950 C 163.140 62.121,162.707 62.261,162.360 62.261 C 162.014 62.261,161.458 62.402,161.126 62.574 C 160.794 62.746,159.426 63.308,158.087 63.822 C 156.748 64.337,155.050 65.057,154.315 65.422 C 153.579 65.788,152.823 66.087,152.634 66.087 C 151.871 66.087,142.231 71.108,138.889 73.246 C 137.867 73.900,136.954 74.435,136.861 74.435 C 136.720 74.435,132.770 77.119,131.652 77.975 C 123.328 84.348,113.997 92.979,109.909 98.087 C 109.067 99.139,108.169 100.235,107.914 100.522 C 106.166 102.490,99.130 112.622,99.130 113.172 C 99.130 113.275,98.778 113.883,98.348 114.522 C 96.923 116.637,91.141 128.555,90.628 130.435 C 90.498 130.913,90.265 131.617,90.111 132.000 C 89.956 132.383,89.512 133.478,89.124 134.435 C 88.736 135.391,88.248 136.800,88.040 137.565 C 87.621 139.102,86.962 141.432,86.120 144.348 C 85.817 145.400,85.394 147.122,85.181 148.174 C 84.968 149.226,84.651 150.791,84.476 151.652 C 84.159 153.218,83.431 158.617,82.789 164.174 C 81.512 175.218,83.096 194.293,86.109 204.174 C 86.372 205.035,86.997 207.148,87.499 208.870 C 88.001 210.591,88.945 213.369,89.597 215.041 C 90.249 216.714,90.783 218.178,90.783 218.296 C 90.783 219.025,95.278 228.000,98.087 232.881 C 101.408 238.650,107.074 246.698,110.391 250.356 C 110.989 251.016,111.851 251.969,112.306 252.473 C 115.763 256.306,120.026 260.465,123.664 263.553 C 124.614 264.359,125.939 265.492,126.609 266.071 C 127.278 266.650,128.100 267.214,128.435 267.324 C 128.770 267.435,129.043 267.662,129.043 267.828 C 129.043 267.995,129.983 268.711,131.130 269.419 C 132.278 270.128,133.217 270.842,133.217 271.006 C 133.217 271.170,133.369 271.304,133.554 271.304 C 133.740 271.304,135.109 272.102,136.598 273.077 C 138.086 274.052,140.400 275.467,141.739 276.223 C 143.078 276.978,144.409 277.745,144.696 277.927 C 145.658 278.539,153.336 282.080,156.424 283.336 C 176.565 291.528,200.728 293.896,221.913 289.754 C 226.859 288.787,234.210 286.870,236.000 286.079 C 236.574 285.826,237.513 285.504,238.087 285.364 C 240.637 284.740,249.338 281.041,253.826 278.674 C 254.257 278.447,254.961 278.078,255.391 277.855 C 258.037 276.482,260.072 275.318,260.549 274.908 C 260.851 274.648,261.205 274.435,261.335 274.435 C 261.865 274.435,270.445 268.512,273.565 265.993 C 286.514 255.538,297.735 241.806,304.895 227.652 C 305.572 226.313,306.261 224.983,306.426 224.696 C 307.372 223.051,310.477 215.334,311.743 211.478 C 313.314 206.698,314.479 202.196,315.478 197.043 C 315.700 195.896,316.024 194.330,316.197 193.565 C 318.275 184.365,318.251 165.298,316.147 154.609 C 315.959 153.652,315.636 152.009,315.430 150.957 C 314.558 146.513,312.973 140.204,312.327 138.609 C 312.173 138.226,311.859 137.287,311.631 136.522 C 311.030 134.506,309.319 129.988,308.293 127.708 C 307.805 126.625,307.280 125.426,307.126 125.043 C 306.384 123.203,305.302 121.030,305.052 120.875 C 304.898 120.780,304.681 120.337,304.569 119.891 C 304.139 118.179,294.734 103.339,293.873 103.014 C 293.704 102.951,293.565 102.735,293.565 102.535 C 293.565 102.335,293.057 101.588,292.435 100.875 C 291.813 100.162,290.522 98.659,289.565 97.535 C 287.221 94.782,285.097 92.388,284.798 92.163 C 284.663 92.061,282.942 90.417,280.972 88.508 C 279.003 86.600,276.687 84.462,275.826 83.758 C 271.738 80.413,267.910 77.526,267.043 77.133 C 266.517 76.895,266.087 76.591,266.087 76.458 C 266.087 76.325,264.639 75.318,262.870 74.220 C 253.711 68.539,243.712 63.939,234.957 61.381 C 233.235 60.877,231.435 60.307,230.957 60.113 C 230.478 59.919,228.913 59.533,227.478 59.255 C 226.043 58.977,224.165 58.601,223.304 58.420 C 213.402 56.335,203.896 55.714,191.826 56.362 M228.796 160.106 C 231.041 162.265,230.408 163.542,223.861 170.065 C 220.466 173.447,220.465 173.097,223.880 176.365 C 231.223 183.393,231.612 184.596,227.408 187.283 C 225.770 188.330,225.019 187.698,217.601 179.033 C 215.346 176.399,215.377 176.366,215.245 181.551 C 215.111 186.809,214.939 187.101,211.952 187.119 C 208.543 187.140,208.709 187.844,208.670 173.225 L 208.635 160.538 209.554 159.747 C 210.627 158.824,212.423 158.708,213.888 159.465 C 215.218 160.153,215.304 160.495,215.304 165.072 C 215.304 169.575,215.581 169.954,217.246 167.739 C 218.454 166.133,219.954 164.458,223.190 161.105 C 226.032 158.160,226.658 158.048,228.796 160.106 M107.304 160.462 C 108.796 162.102,109.426 162.885,112.351 166.735 C 115.774 171.241,115.681 171.130,116.043 171.130 C 116.384 171.130,118.534 168.472,121.098 164.879 C 124.582 159.998,125.542 159.172,127.755 159.150 C 131.423 159.113,131.280 158.542,131.284 173.253 L 131.288 185.814 130.475 186.472 C 129.483 187.276,126.382 187.376,125.371 186.637 C 124.747 186.182,124.688 185.602,124.589 178.985 C 124.473 171.208,124.345 170.793,122.783 173.133 C 122.305 173.849,121.717 174.643,121.476 174.897 C 121.236 175.151,120.862 175.689,120.646 176.092 C 120.430 176.496,120.116 176.992,119.948 177.195 C 116.290 181.613,114.363 180.861,109.098 172.962 C 107.562 170.659,107.478 170.957,107.478 178.743 L 107.478 186.007 106.621 186.569 C 104.718 187.816,101.841 187.207,100.846 185.347 C 100.166 184.077,100.499 161.944,101.218 160.604 C 102.308 158.571,105.516 158.496,107.304 160.462 M255.826 167.210 C 258.770 168.127,262.261 171.509,262.261 173.443 C 262.261 173.893,262.417 174.261,262.609 174.261 C 263.354 174.261,262.999 179.547,262.131 181.391 C 259.166 187.686,252.976 189.300,246.197 185.545 C 239.433 181.797,241.363 169.486,249.074 167.193 C 252.254 166.246,252.735 166.248,255.826 167.210 M190.771 167.166 C 192.137 167.509,193.292 168.046,193.778 168.563 L 194.567 169.403 193.824 170.933 C 192.892 172.852,192.158 173.084,189.392 172.335 C 186.873 171.653,185.391 171.846,185.391 172.856 C 185.391 173.720,185.642 173.855,188.067 174.300 C 193.688 175.331,195.592 177.549,194.976 182.352 C 194.414 186.737,188.500 188.980,182.550 187.063 C 178.193 185.660,177.434 184.137,179.684 181.316 L 180.429 180.381 182.475 180.998 C 183.601 181.337,185.079 181.785,185.760 181.992 C 187.208 182.433,188.870 182.117,188.870 181.399 C 188.870 181.077,187.974 180.641,186.348 180.174 C 181.181 178.688,179.911 177.599,179.173 174.026 C 178.040 168.539,183.463 165.330,190.771 167.166 M164.435 167.924 C 165.173 168.869,165.045 185.664,164.294 186.494 C 163.467 187.409,160.251 187.378,159.064 186.445 C 158.197 185.763,158.186 185.763,156.850 186.445 C 150.449 189.710,142.480 181.421,145.042 174.164 C 145.789 172.049,148.214 168.688,148.989 168.694 C 149.150 168.695,149.680 168.383,150.166 168.000 C 151.468 166.976,155.695 167.001,157.017 168.041 L 157.954 168.778 158.716 168.072 C 160.014 166.868,163.539 166.777,164.435 167.924 M282.456 168.039 C 282.806 168.693,284.174 168.972,284.174 168.390 C 284.174 167.549,287.708 166.888,289.760 167.345 C 294.765 168.461,296.859 172.771,296.639 181.507 C 296.503 186.893,296.365 187.130,293.372 187.130 C 290.029 187.130,289.739 186.620,289.739 180.721 C 289.739 175.015,289.275 173.908,286.886 173.918 C 283.626 173.931,283.130 174.797,283.130 180.482 C 283.130 186.514,282.812 187.116,279.619 187.125 C 276.371 187.134,276.369 187.128,276.233 177.759 C 276.096 168.337,276.293 167.421,278.495 167.240 C 280.705 167.058,282.079 167.335,282.456 168.039 M250.892 173.726 C 247.470 175.215,248.597 180.870,252.316 180.870 C 256.207 180.870,257.627 175.471,254.150 173.893 C 252.425 173.110,252.322 173.105,250.892 173.726 M152.355 174.949 C 150.719 176.700,151.114 178.979,153.229 179.982 C 155.546 181.082,157.921 179.610,157.905 177.084 C 157.887 174.106,154.396 172.764,152.355 174.949 " stroke="none" fill="#7b93cb" fill-rule="evenodd"></path></g></svg>